%TF.GenerationSoftware,KiCad,Pcbnew,9.0.3*%
%TF.CreationDate,2025-08-13T01:08:13-07:00*%
%TF.ProjectId,TGslimeblahbal,5447736c-696d-4656-926c-616862616c2e,rev?*%
%TF.SameCoordinates,Original*%
%TF.FileFunction,Legend,Top*%
%TF.FilePolarity,Positive*%
%FSLAX46Y46*%
G04 Gerber Fmt 4.6, Leading zero omitted, Abs format (unit mm)*
G04 Created by KiCad (PCBNEW 9.0.3) date 2025-08-13 01:08:13*
%MOMM*%
%LPD*%
G01*
G04 APERTURE LIST*
%ADD10C,0.400000*%
%ADD11C,0.100000*%
G04 APERTURE END LIST*
D10*
X160589347Y-64522533D02*
X162113157Y-64522533D01*
X160489347Y-60372533D02*
X162013157Y-60372533D01*
X161251252Y-61134438D02*
X161251252Y-59610628D01*
D11*
X139500000Y-57400000D02*
X159750000Y-57400000D01*
X159750000Y-69100000D01*
X139500000Y-69100000D01*
X139500000Y-57400000D01*
X120950000Y-57050000D02*
X138650000Y-57050000D01*
X138650000Y-90150000D01*
X120950000Y-90150000D01*
X120950000Y-57050000D01*
X141975000Y-72200000D02*
X159725000Y-72200000D01*
X159725000Y-90003000D01*
X141975000Y-90003000D01*
X141975000Y-72200000D01*
X162950000Y-78900000D02*
X168900000Y-78900000D01*
X168900000Y-84900000D01*
X162950000Y-84900000D01*
X162950000Y-78900000D01*
X165450000Y-60050000D02*
X168450000Y-60050000D01*
X168450000Y-67050000D01*
X165450000Y-67050000D01*
X165450000Y-60050000D01*
X150003884Y-80922419D02*
X150003884Y-79922419D01*
X150480074Y-80922419D02*
X150480074Y-79922419D01*
X150480074Y-79922419D02*
X150813407Y-80636704D01*
X150813407Y-80636704D02*
X151146740Y-79922419D01*
X151146740Y-79922419D02*
X151146740Y-80922419D01*
X151622931Y-79922419D02*
X151622931Y-80731942D01*
X151622931Y-80731942D02*
X151670550Y-80827180D01*
X151670550Y-80827180D02*
X151718169Y-80874800D01*
X151718169Y-80874800D02*
X151813407Y-80922419D01*
X151813407Y-80922419D02*
X152003883Y-80922419D01*
X152003883Y-80922419D02*
X152099121Y-80874800D01*
X152099121Y-80874800D02*
X152146740Y-80827180D01*
X152146740Y-80827180D02*
X152194359Y-80731942D01*
X152194359Y-80731942D02*
X152194359Y-79922419D01*
X125703884Y-72922419D02*
X125703884Y-71922419D01*
X125703884Y-71922419D02*
X126275312Y-72922419D01*
X126275312Y-72922419D02*
X126275312Y-71922419D01*
X127322931Y-72922419D02*
X126989598Y-72446228D01*
X126751503Y-72922419D02*
X126751503Y-71922419D01*
X126751503Y-71922419D02*
X127132455Y-71922419D01*
X127132455Y-71922419D02*
X127227693Y-71970038D01*
X127227693Y-71970038D02*
X127275312Y-72017657D01*
X127275312Y-72017657D02*
X127322931Y-72112895D01*
X127322931Y-72112895D02*
X127322931Y-72255752D01*
X127322931Y-72255752D02*
X127275312Y-72350990D01*
X127275312Y-72350990D02*
X127227693Y-72398609D01*
X127227693Y-72398609D02*
X127132455Y-72446228D01*
X127132455Y-72446228D02*
X126751503Y-72446228D01*
X128084836Y-72398609D02*
X127751503Y-72398609D01*
X127751503Y-72922419D02*
X127751503Y-71922419D01*
X127751503Y-71922419D02*
X128227693Y-71922419D01*
X129084836Y-71922419D02*
X128608646Y-71922419D01*
X128608646Y-71922419D02*
X128561027Y-72398609D01*
X128561027Y-72398609D02*
X128608646Y-72350990D01*
X128608646Y-72350990D02*
X128703884Y-72303371D01*
X128703884Y-72303371D02*
X128941979Y-72303371D01*
X128941979Y-72303371D02*
X129037217Y-72350990D01*
X129037217Y-72350990D02*
X129084836Y-72398609D01*
X129084836Y-72398609D02*
X129132455Y-72493847D01*
X129132455Y-72493847D02*
X129132455Y-72731942D01*
X129132455Y-72731942D02*
X129084836Y-72827180D01*
X129084836Y-72827180D02*
X129037217Y-72874800D01*
X129037217Y-72874800D02*
X128941979Y-72922419D01*
X128941979Y-72922419D02*
X128703884Y-72922419D01*
X128703884Y-72922419D02*
X128608646Y-72874800D01*
X128608646Y-72874800D02*
X128561027Y-72827180D01*
X129513408Y-72017657D02*
X129561027Y-71970038D01*
X129561027Y-71970038D02*
X129656265Y-71922419D01*
X129656265Y-71922419D02*
X129894360Y-71922419D01*
X129894360Y-71922419D02*
X129989598Y-71970038D01*
X129989598Y-71970038D02*
X130037217Y-72017657D01*
X130037217Y-72017657D02*
X130084836Y-72112895D01*
X130084836Y-72112895D02*
X130084836Y-72208133D01*
X130084836Y-72208133D02*
X130037217Y-72350990D01*
X130037217Y-72350990D02*
X129465789Y-72922419D01*
X129465789Y-72922419D02*
X130084836Y-72922419D01*
X130656265Y-72350990D02*
X130561027Y-72303371D01*
X130561027Y-72303371D02*
X130513408Y-72255752D01*
X130513408Y-72255752D02*
X130465789Y-72160514D01*
X130465789Y-72160514D02*
X130465789Y-72112895D01*
X130465789Y-72112895D02*
X130513408Y-72017657D01*
X130513408Y-72017657D02*
X130561027Y-71970038D01*
X130561027Y-71970038D02*
X130656265Y-71922419D01*
X130656265Y-71922419D02*
X130846741Y-71922419D01*
X130846741Y-71922419D02*
X130941979Y-71970038D01*
X130941979Y-71970038D02*
X130989598Y-72017657D01*
X130989598Y-72017657D02*
X131037217Y-72112895D01*
X131037217Y-72112895D02*
X131037217Y-72160514D01*
X131037217Y-72160514D02*
X130989598Y-72255752D01*
X130989598Y-72255752D02*
X130941979Y-72303371D01*
X130941979Y-72303371D02*
X130846741Y-72350990D01*
X130846741Y-72350990D02*
X130656265Y-72350990D01*
X130656265Y-72350990D02*
X130561027Y-72398609D01*
X130561027Y-72398609D02*
X130513408Y-72446228D01*
X130513408Y-72446228D02*
X130465789Y-72541466D01*
X130465789Y-72541466D02*
X130465789Y-72731942D01*
X130465789Y-72731942D02*
X130513408Y-72827180D01*
X130513408Y-72827180D02*
X130561027Y-72874800D01*
X130561027Y-72874800D02*
X130656265Y-72922419D01*
X130656265Y-72922419D02*
X130846741Y-72922419D01*
X130846741Y-72922419D02*
X130941979Y-72874800D01*
X130941979Y-72874800D02*
X130989598Y-72827180D01*
X130989598Y-72827180D02*
X131037217Y-72731942D01*
X131037217Y-72731942D02*
X131037217Y-72541466D01*
X131037217Y-72541466D02*
X130989598Y-72446228D01*
X130989598Y-72446228D02*
X130941979Y-72398609D01*
X130941979Y-72398609D02*
X130846741Y-72350990D01*
X131894360Y-72255752D02*
X131894360Y-72922419D01*
X131656265Y-71874800D02*
X131418170Y-72589085D01*
X131418170Y-72589085D02*
X132037217Y-72589085D01*
X132608646Y-71922419D02*
X132703884Y-71922419D01*
X132703884Y-71922419D02*
X132799122Y-71970038D01*
X132799122Y-71970038D02*
X132846741Y-72017657D01*
X132846741Y-72017657D02*
X132894360Y-72112895D01*
X132894360Y-72112895D02*
X132941979Y-72303371D01*
X132941979Y-72303371D02*
X132941979Y-72541466D01*
X132941979Y-72541466D02*
X132894360Y-72731942D01*
X132894360Y-72731942D02*
X132846741Y-72827180D01*
X132846741Y-72827180D02*
X132799122Y-72874800D01*
X132799122Y-72874800D02*
X132703884Y-72922419D01*
X132703884Y-72922419D02*
X132608646Y-72922419D01*
X132608646Y-72922419D02*
X132513408Y-72874800D01*
X132513408Y-72874800D02*
X132465789Y-72827180D01*
X132465789Y-72827180D02*
X132418170Y-72731942D01*
X132418170Y-72731942D02*
X132370551Y-72541466D01*
X132370551Y-72541466D02*
X132370551Y-72303371D01*
X132370551Y-72303371D02*
X132418170Y-72112895D01*
X132418170Y-72112895D02*
X132465789Y-72017657D01*
X132465789Y-72017657D02*
X132513408Y-71970038D01*
X132513408Y-71970038D02*
X132608646Y-71922419D01*
X167541200Y-61718169D02*
X167503104Y-61794360D01*
X167503104Y-61794360D02*
X167503104Y-61946741D01*
X167503104Y-61946741D02*
X167541200Y-62022931D01*
X167541200Y-62022931D02*
X167617390Y-62061027D01*
X167617390Y-62061027D02*
X167655485Y-62061027D01*
X167655485Y-62061027D02*
X167731676Y-62022931D01*
X167731676Y-62022931D02*
X167769771Y-61946741D01*
X167769771Y-61946741D02*
X167769771Y-61832455D01*
X167769771Y-61832455D02*
X167807866Y-61756265D01*
X167807866Y-61756265D02*
X167884057Y-61718169D01*
X167884057Y-61718169D02*
X167922152Y-61718169D01*
X167922152Y-61718169D02*
X167998342Y-61756265D01*
X167998342Y-61756265D02*
X168036438Y-61832455D01*
X168036438Y-61832455D02*
X168036438Y-61946741D01*
X168036438Y-61946741D02*
X167998342Y-62022931D01*
X168036438Y-62327693D02*
X167503104Y-62480074D01*
X167503104Y-62480074D02*
X167884057Y-62632455D01*
X167884057Y-62632455D02*
X167503104Y-62784836D01*
X167503104Y-62784836D02*
X168036438Y-62937217D01*
X167503104Y-63241979D02*
X168036438Y-63241979D01*
X168303104Y-63241979D02*
X168265009Y-63203883D01*
X168265009Y-63203883D02*
X168226914Y-63241979D01*
X168226914Y-63241979D02*
X168265009Y-63280074D01*
X168265009Y-63280074D02*
X168303104Y-63241979D01*
X168303104Y-63241979D02*
X168226914Y-63241979D01*
X168036438Y-63508645D02*
X168036438Y-63813407D01*
X168303104Y-63622931D02*
X167617390Y-63622931D01*
X167617390Y-63622931D02*
X167541200Y-63661026D01*
X167541200Y-63661026D02*
X167503104Y-63737216D01*
X167503104Y-63737216D02*
X167503104Y-63813407D01*
X167541200Y-64422931D02*
X167503104Y-64346740D01*
X167503104Y-64346740D02*
X167503104Y-64194359D01*
X167503104Y-64194359D02*
X167541200Y-64118169D01*
X167541200Y-64118169D02*
X167579295Y-64080074D01*
X167579295Y-64080074D02*
X167655485Y-64041978D01*
X167655485Y-64041978D02*
X167884057Y-64041978D01*
X167884057Y-64041978D02*
X167960247Y-64080074D01*
X167960247Y-64080074D02*
X167998342Y-64118169D01*
X167998342Y-64118169D02*
X168036438Y-64194359D01*
X168036438Y-64194359D02*
X168036438Y-64346740D01*
X168036438Y-64346740D02*
X167998342Y-64422931D01*
X167503104Y-64765788D02*
X168303104Y-64765788D01*
X167503104Y-65108645D02*
X167922152Y-65108645D01*
X167922152Y-65108645D02*
X167998342Y-65070550D01*
X167998342Y-65070550D02*
X168036438Y-64994359D01*
X168036438Y-64994359D02*
X168036438Y-64880073D01*
X168036438Y-64880073D02*
X167998342Y-64803883D01*
X167998342Y-64803883D02*
X167960247Y-64765788D01*
X165853884Y-82277180D02*
X165901503Y-82324800D01*
X165901503Y-82324800D02*
X165853884Y-82372419D01*
X165853884Y-82372419D02*
X165806265Y-82324800D01*
X165806265Y-82324800D02*
X165853884Y-82277180D01*
X165853884Y-82277180D02*
X165853884Y-82372419D01*
X165853884Y-81753371D02*
X165901503Y-81800990D01*
X165901503Y-81800990D02*
X165853884Y-81848609D01*
X165853884Y-81848609D02*
X165806265Y-81800990D01*
X165806265Y-81800990D02*
X165853884Y-81753371D01*
X165853884Y-81753371D02*
X165853884Y-81848609D01*
X166234836Y-81372419D02*
X166853883Y-81372419D01*
X166853883Y-81372419D02*
X166520550Y-81753371D01*
X166520550Y-81753371D02*
X166663407Y-81753371D01*
X166663407Y-81753371D02*
X166758645Y-81800990D01*
X166758645Y-81800990D02*
X166806264Y-81848609D01*
X166806264Y-81848609D02*
X166853883Y-81943847D01*
X166853883Y-81943847D02*
X166853883Y-82181942D01*
X166853883Y-82181942D02*
X166806264Y-82277180D01*
X166806264Y-82277180D02*
X166758645Y-82324800D01*
X166758645Y-82324800D02*
X166663407Y-82372419D01*
X166663407Y-82372419D02*
X166377693Y-82372419D01*
X166377693Y-82372419D02*
X166282455Y-82324800D01*
X166282455Y-82324800D02*
X166234836Y-82277180D01*
X147553884Y-62822419D02*
X147553884Y-61822419D01*
X147553884Y-62203371D02*
X147649122Y-62155752D01*
X147649122Y-62155752D02*
X147839598Y-62155752D01*
X147839598Y-62155752D02*
X147934836Y-62203371D01*
X147934836Y-62203371D02*
X147982455Y-62250990D01*
X147982455Y-62250990D02*
X148030074Y-62346228D01*
X148030074Y-62346228D02*
X148030074Y-62631942D01*
X148030074Y-62631942D02*
X147982455Y-62727180D01*
X147982455Y-62727180D02*
X147934836Y-62774800D01*
X147934836Y-62774800D02*
X147839598Y-62822419D01*
X147839598Y-62822419D02*
X147649122Y-62822419D01*
X147649122Y-62822419D02*
X147553884Y-62774800D01*
X148887217Y-62822419D02*
X148887217Y-62298609D01*
X148887217Y-62298609D02*
X148839598Y-62203371D01*
X148839598Y-62203371D02*
X148744360Y-62155752D01*
X148744360Y-62155752D02*
X148553884Y-62155752D01*
X148553884Y-62155752D02*
X148458646Y-62203371D01*
X148887217Y-62774800D02*
X148791979Y-62822419D01*
X148791979Y-62822419D02*
X148553884Y-62822419D01*
X148553884Y-62822419D02*
X148458646Y-62774800D01*
X148458646Y-62774800D02*
X148411027Y-62679561D01*
X148411027Y-62679561D02*
X148411027Y-62584323D01*
X148411027Y-62584323D02*
X148458646Y-62489085D01*
X148458646Y-62489085D02*
X148553884Y-62441466D01*
X148553884Y-62441466D02*
X148791979Y-62441466D01*
X148791979Y-62441466D02*
X148887217Y-62393847D01*
X149220551Y-62155752D02*
X149601503Y-62155752D01*
X149363408Y-61822419D02*
X149363408Y-62679561D01*
X149363408Y-62679561D02*
X149411027Y-62774800D01*
X149411027Y-62774800D02*
X149506265Y-62822419D01*
X149506265Y-62822419D02*
X149601503Y-62822419D01*
X149791980Y-62155752D02*
X150172932Y-62155752D01*
X149934837Y-61822419D02*
X149934837Y-62679561D01*
X149934837Y-62679561D02*
X149982456Y-62774800D01*
X149982456Y-62774800D02*
X150077694Y-62822419D01*
X150077694Y-62822419D02*
X150172932Y-62822419D01*
X150887218Y-62774800D02*
X150791980Y-62822419D01*
X150791980Y-62822419D02*
X150601504Y-62822419D01*
X150601504Y-62822419D02*
X150506266Y-62774800D01*
X150506266Y-62774800D02*
X150458647Y-62679561D01*
X150458647Y-62679561D02*
X150458647Y-62298609D01*
X150458647Y-62298609D02*
X150506266Y-62203371D01*
X150506266Y-62203371D02*
X150601504Y-62155752D01*
X150601504Y-62155752D02*
X150791980Y-62155752D01*
X150791980Y-62155752D02*
X150887218Y-62203371D01*
X150887218Y-62203371D02*
X150934837Y-62298609D01*
X150934837Y-62298609D02*
X150934837Y-62393847D01*
X150934837Y-62393847D02*
X150458647Y-62489085D01*
X151363409Y-62822419D02*
X151363409Y-62155752D01*
X151363409Y-62346228D02*
X151411028Y-62250990D01*
X151411028Y-62250990D02*
X151458647Y-62203371D01*
X151458647Y-62203371D02*
X151553885Y-62155752D01*
X151553885Y-62155752D02*
X151649123Y-62155752D01*
X151887219Y-62155752D02*
X152125314Y-62822419D01*
X152363409Y-62155752D02*
X152125314Y-62822419D01*
X152125314Y-62822419D02*
X152030076Y-63060514D01*
X152030076Y-63060514D02*
X151982457Y-63108133D01*
X151982457Y-63108133D02*
X151887219Y-63155752D01*
M02*
