%TF.GenerationSoftware,KiCad,Pcbnew,9.0.3*%
%TF.CreationDate,2025-08-13T01:08:13-07:00*%
%TF.ProjectId,TGslimeblahbal,5447736c-696d-4656-926c-616862616c2e,rev?*%
%TF.SameCoordinates,Original*%
%TF.FileFunction,Soldermask,Top*%
%TF.FilePolarity,Negative*%
%FSLAX46Y46*%
G04 Gerber Fmt 4.6, Leading zero omitted, Abs format (unit mm)*
G04 Created by KiCad (PCBNEW 9.0.3) date 2025-08-13 01:08:13*
%MOMM*%
%LPD*%
G01*
G04 APERTURE LIST*
%ADD10C,0.200000*%
%ADD11C,0.000000*%
G04 APERTURE END LIST*
D10*
X163850000Y-65290000D02*
X165870000Y-65290000D01*
X165870000Y-66180000D01*
X163850000Y-66180000D01*
X163850000Y-65290000D01*
G36*
X163850000Y-65290000D02*
G01*
X165870000Y-65290000D01*
X165870000Y-66180000D01*
X163850000Y-66180000D01*
X163850000Y-65290000D01*
G37*
X163860000Y-62290000D02*
X165870000Y-62290000D01*
X165870000Y-63120000D01*
X163860000Y-63120000D01*
X163860000Y-62290000D01*
G36*
X163860000Y-62290000D02*
G01*
X165870000Y-62290000D01*
X165870000Y-63120000D01*
X163860000Y-63120000D01*
X163860000Y-62290000D01*
G37*
X163850000Y-60810000D02*
X165890000Y-60810000D01*
X165890000Y-61620000D01*
X163850000Y-61620000D01*
X163850000Y-60810000D01*
G36*
X163850000Y-60810000D02*
G01*
X165890000Y-60810000D01*
X165890000Y-61620000D01*
X163850000Y-61620000D01*
X163850000Y-60810000D01*
G37*
D11*
G36*
X137678410Y-67603850D02*
G01*
X137756070Y-67615370D01*
X137832230Y-67634450D01*
X137906150Y-67660900D01*
X137977120Y-67694460D01*
X138044460Y-67734820D01*
X138107510Y-67781590D01*
X138165690Y-67834310D01*
X138218410Y-67892490D01*
X138265180Y-67955540D01*
X138305540Y-68022880D01*
X138339100Y-68093850D01*
X138365550Y-68167770D01*
X138384630Y-68243930D01*
X138396150Y-68321590D01*
X138400000Y-68400000D01*
X138396150Y-68478410D01*
X138384630Y-68556070D01*
X138365550Y-68632230D01*
X138339100Y-68706150D01*
X138305540Y-68777120D01*
X138265180Y-68844460D01*
X138218410Y-68907510D01*
X138165690Y-68965690D01*
X138107510Y-69018410D01*
X138044460Y-69065180D01*
X137977120Y-69105540D01*
X137906150Y-69139100D01*
X137832230Y-69165550D01*
X137756070Y-69184630D01*
X137678410Y-69196150D01*
X137600000Y-69200000D01*
X137400000Y-69200000D01*
X137200000Y-69200000D01*
X137121590Y-69196150D01*
X137043930Y-69184630D01*
X136967770Y-69165550D01*
X136893850Y-69139100D01*
X136822880Y-69105540D01*
X136755540Y-69065180D01*
X136692490Y-69018410D01*
X136634310Y-68965690D01*
X136581590Y-68907510D01*
X136534820Y-68844460D01*
X136494460Y-68777120D01*
X136460900Y-68706150D01*
X136434450Y-68632230D01*
X136415370Y-68556070D01*
X136403850Y-68478410D01*
X136400000Y-68400000D01*
X136403850Y-68321590D01*
X136415370Y-68243930D01*
X136434450Y-68167770D01*
X136460900Y-68093850D01*
X136494460Y-68022880D01*
X136534820Y-67955540D01*
X136581590Y-67892490D01*
X136634310Y-67834310D01*
X136692490Y-67781590D01*
X136755540Y-67734820D01*
X136822880Y-67694460D01*
X136893850Y-67660900D01*
X136967770Y-67634450D01*
X137043930Y-67615370D01*
X137121590Y-67603850D01*
X137200000Y-67600000D01*
X137600000Y-67600000D01*
X137678410Y-67603850D01*
G37*
G36*
X122294434Y-75262704D02*
G01*
X122372094Y-75274224D01*
X122448254Y-75293304D01*
X122522174Y-75319754D01*
X122593144Y-75353314D01*
X122660484Y-75393674D01*
X122723534Y-75440444D01*
X122781714Y-75493164D01*
X122834434Y-75551344D01*
X122881204Y-75614394D01*
X122921564Y-75681734D01*
X122955124Y-75752704D01*
X122981574Y-75826624D01*
X123000654Y-75902784D01*
X123012174Y-75980444D01*
X123016024Y-76058854D01*
X123012174Y-76137264D01*
X123000654Y-76214924D01*
X122981574Y-76291084D01*
X122955124Y-76365004D01*
X122921564Y-76435974D01*
X122881204Y-76503314D01*
X122834434Y-76566364D01*
X122781714Y-76624544D01*
X122723534Y-76677264D01*
X122660484Y-76724034D01*
X122593144Y-76764394D01*
X122522174Y-76797954D01*
X122448254Y-76824404D01*
X122372094Y-76843484D01*
X122294434Y-76855004D01*
X122216024Y-76858854D01*
X122016024Y-76858854D01*
X121816024Y-76858854D01*
X121737614Y-76855004D01*
X121659954Y-76843484D01*
X121583794Y-76824404D01*
X121509874Y-76797954D01*
X121438904Y-76764394D01*
X121371564Y-76724034D01*
X121308514Y-76677264D01*
X121250334Y-76624544D01*
X121197614Y-76566364D01*
X121150844Y-76503314D01*
X121110484Y-76435974D01*
X121076924Y-76365004D01*
X121050474Y-76291084D01*
X121031394Y-76214924D01*
X121019874Y-76137264D01*
X121016024Y-76058854D01*
X121019874Y-75980444D01*
X121031394Y-75902784D01*
X121050474Y-75826624D01*
X121076924Y-75752704D01*
X121110484Y-75681734D01*
X121150844Y-75614394D01*
X121197614Y-75551344D01*
X121250334Y-75493164D01*
X121308514Y-75440444D01*
X121371564Y-75393674D01*
X121438904Y-75353314D01*
X121509874Y-75319754D01*
X121583794Y-75293304D01*
X121659954Y-75274224D01*
X121737614Y-75262704D01*
X121816024Y-75258854D01*
X122216024Y-75258854D01*
X122294434Y-75262704D01*
G37*
G36*
X164450000Y-79232000D02*
G01*
X162926000Y-79232000D01*
X162926000Y-77708000D01*
X164450000Y-77708000D01*
X164450000Y-79232000D01*
G37*
G36*
X122294434Y-75262704D02*
G01*
X122372094Y-75274224D01*
X122448254Y-75293304D01*
X122522174Y-75319754D01*
X122593144Y-75353314D01*
X122660484Y-75393674D01*
X122723534Y-75440444D01*
X122781714Y-75493164D01*
X122834434Y-75551344D01*
X122881204Y-75614394D01*
X122921564Y-75681734D01*
X122955124Y-75752704D01*
X122981574Y-75826624D01*
X123000654Y-75902784D01*
X123012174Y-75980444D01*
X123016024Y-76058854D01*
X123012174Y-76137264D01*
X123000654Y-76214924D01*
X122981574Y-76291084D01*
X122955124Y-76365004D01*
X122921564Y-76435974D01*
X122881204Y-76503314D01*
X122834434Y-76566364D01*
X122781714Y-76624544D01*
X122723534Y-76677264D01*
X122660484Y-76724034D01*
X122593144Y-76764394D01*
X122522174Y-76797954D01*
X122448254Y-76824404D01*
X122372094Y-76843484D01*
X122294434Y-76855004D01*
X122216024Y-76858854D01*
X122016024Y-76858854D01*
X121816024Y-76858854D01*
X121737614Y-76855004D01*
X121659954Y-76843484D01*
X121583794Y-76824404D01*
X121509874Y-76797954D01*
X121438904Y-76764394D01*
X121371564Y-76724034D01*
X121308514Y-76677264D01*
X121250334Y-76624544D01*
X121197614Y-76566364D01*
X121150844Y-76503314D01*
X121110484Y-76435974D01*
X121076924Y-76365004D01*
X121050474Y-76291084D01*
X121031394Y-76214924D01*
X121019874Y-76137264D01*
X121016024Y-76058854D01*
X121019874Y-75980444D01*
X121031394Y-75902784D01*
X121050474Y-75826624D01*
X121076924Y-75752704D01*
X121110484Y-75681734D01*
X121150844Y-75614394D01*
X121197614Y-75551344D01*
X121250334Y-75493164D01*
X121308514Y-75440444D01*
X121371564Y-75393674D01*
X121438904Y-75353314D01*
X121509874Y-75319754D01*
X121583794Y-75293304D01*
X121659954Y-75274224D01*
X121737614Y-75262704D01*
X121816024Y-75258854D01*
X122216024Y-75258854D01*
X122294434Y-75262704D01*
G37*
G36*
X168698000Y-59020575D02*
G01*
X168707900Y-59022045D01*
X168717610Y-59024475D01*
X168727030Y-59027845D01*
X168736080Y-59032125D01*
X168744670Y-59037275D01*
X168752710Y-59043235D01*
X168760120Y-59049965D01*
X168766850Y-59057375D01*
X168772810Y-59065415D01*
X168777960Y-59074005D01*
X168782240Y-59083055D01*
X168785610Y-59092475D01*
X168788040Y-59102185D01*
X168789510Y-59112085D01*
X168790000Y-59122085D01*
X168790000Y-60430085D01*
X168789510Y-60440085D01*
X168788040Y-60449985D01*
X168785610Y-60459695D01*
X168782240Y-60469115D01*
X168777960Y-60478165D01*
X168772810Y-60486755D01*
X168766850Y-60494795D01*
X168760120Y-60502205D01*
X168752710Y-60508935D01*
X168744670Y-60514895D01*
X168736080Y-60520045D01*
X168727030Y-60524325D01*
X168717610Y-60527695D01*
X168707900Y-60530125D01*
X168698000Y-60531595D01*
X168688000Y-60532085D01*
X167380000Y-60532085D01*
X167370000Y-60531595D01*
X167360100Y-60530125D01*
X167350390Y-60527695D01*
X167340970Y-60524325D01*
X167331920Y-60520045D01*
X167323330Y-60514895D01*
X167315290Y-60508935D01*
X167307880Y-60502205D01*
X167301150Y-60494795D01*
X167295190Y-60486755D01*
X167290040Y-60478165D01*
X167285760Y-60469115D01*
X167282390Y-60459695D01*
X167279960Y-60449985D01*
X167278490Y-60440085D01*
X167278000Y-60430085D01*
X167278000Y-59122085D01*
X167278490Y-59112085D01*
X167279960Y-59102185D01*
X167282390Y-59092475D01*
X167285760Y-59083055D01*
X167290040Y-59074005D01*
X167295190Y-59065415D01*
X167301150Y-59057375D01*
X167307880Y-59049965D01*
X167315290Y-59043235D01*
X167323330Y-59037275D01*
X167331920Y-59032125D01*
X167340970Y-59027845D01*
X167350390Y-59024475D01*
X167360100Y-59022045D01*
X167370000Y-59020575D01*
X167380000Y-59020085D01*
X168688000Y-59020085D01*
X168698000Y-59020575D01*
G37*
G36*
X122274434Y-59892704D02*
G01*
X122352094Y-59904224D01*
X122428254Y-59923304D01*
X122502174Y-59949754D01*
X122573144Y-59983314D01*
X122640484Y-60023674D01*
X122703534Y-60070444D01*
X122761714Y-60123164D01*
X122814434Y-60181344D01*
X122861204Y-60244394D01*
X122901564Y-60311734D01*
X122935124Y-60382704D01*
X122961574Y-60456624D01*
X122980654Y-60532784D01*
X122992174Y-60610444D01*
X122996024Y-60688854D01*
X122992174Y-60767264D01*
X122980654Y-60844924D01*
X122961574Y-60921084D01*
X122935124Y-60995004D01*
X122901564Y-61065974D01*
X122861204Y-61133314D01*
X122814434Y-61196364D01*
X122761714Y-61254544D01*
X122703534Y-61307264D01*
X122640484Y-61354034D01*
X122573144Y-61394394D01*
X122502174Y-61427954D01*
X122428254Y-61454404D01*
X122352094Y-61473484D01*
X122274434Y-61485004D01*
X122196024Y-61488854D01*
X121996024Y-61488854D01*
X121796024Y-61488854D01*
X121717614Y-61485004D01*
X121639954Y-61473484D01*
X121563794Y-61454404D01*
X121489874Y-61427954D01*
X121418904Y-61394394D01*
X121351564Y-61354034D01*
X121288514Y-61307264D01*
X121230334Y-61254544D01*
X121177614Y-61196364D01*
X121130844Y-61133314D01*
X121090484Y-61065974D01*
X121056924Y-60995004D01*
X121030474Y-60921084D01*
X121011394Y-60844924D01*
X120999874Y-60767264D01*
X120996024Y-60688854D01*
X120999874Y-60610444D01*
X121011394Y-60532784D01*
X121030474Y-60456624D01*
X121056924Y-60382704D01*
X121090484Y-60311734D01*
X121130844Y-60244394D01*
X121177614Y-60181344D01*
X121230334Y-60123164D01*
X121288514Y-60070444D01*
X121351564Y-60023674D01*
X121418904Y-59983314D01*
X121489874Y-59949754D01*
X121563794Y-59923304D01*
X121639954Y-59904224D01*
X121717614Y-59892704D01*
X121796024Y-59888854D01*
X122196024Y-59888854D01*
X122274434Y-59892704D01*
G37*
G36*
X162210000Y-59340000D02*
G01*
X160210000Y-59340000D01*
X160210000Y-57340000D01*
X162210000Y-57340000D01*
X162210000Y-59340000D01*
G37*
G36*
X166508000Y-59040575D02*
G01*
X166517900Y-59042045D01*
X166527610Y-59044475D01*
X166537030Y-59047845D01*
X166546080Y-59052125D01*
X166554670Y-59057275D01*
X166562710Y-59063235D01*
X166570120Y-59069965D01*
X166576850Y-59077375D01*
X166582810Y-59085415D01*
X166587960Y-59094005D01*
X166592240Y-59103055D01*
X166595610Y-59112475D01*
X166598040Y-59122185D01*
X166599510Y-59132085D01*
X166600000Y-59142085D01*
X166600000Y-60450085D01*
X166599510Y-60460085D01*
X166598040Y-60469985D01*
X166595610Y-60479695D01*
X166592240Y-60489115D01*
X166587960Y-60498165D01*
X166582810Y-60506755D01*
X166576850Y-60514795D01*
X166570120Y-60522205D01*
X166562710Y-60528935D01*
X166554670Y-60534895D01*
X166546080Y-60540045D01*
X166537030Y-60544325D01*
X166527610Y-60547695D01*
X166517900Y-60550125D01*
X166508000Y-60551595D01*
X166498000Y-60552085D01*
X165190000Y-60552085D01*
X165180000Y-60551595D01*
X165170100Y-60550125D01*
X165160390Y-60547695D01*
X165150970Y-60544325D01*
X165141920Y-60540045D01*
X165133330Y-60534895D01*
X165125290Y-60528935D01*
X165117880Y-60522205D01*
X165111150Y-60514795D01*
X165105190Y-60506755D01*
X165100040Y-60498165D01*
X165095760Y-60489115D01*
X165092390Y-60479695D01*
X165089960Y-60469985D01*
X165088490Y-60460085D01*
X165088000Y-60450085D01*
X165088000Y-59142085D01*
X165088490Y-59132085D01*
X165089960Y-59122185D01*
X165092390Y-59112475D01*
X165095760Y-59103055D01*
X165100040Y-59094005D01*
X165105190Y-59085415D01*
X165111150Y-59077375D01*
X165117880Y-59069965D01*
X165125290Y-59063235D01*
X165133330Y-59057275D01*
X165141920Y-59052125D01*
X165150970Y-59047845D01*
X165160390Y-59044475D01*
X165170100Y-59042045D01*
X165180000Y-59040575D01*
X165190000Y-59040085D01*
X166498000Y-59040085D01*
X166508000Y-59040575D01*
G37*
G36*
X166558000Y-66560575D02*
G01*
X166567900Y-66562045D01*
X166577610Y-66564475D01*
X166587030Y-66567845D01*
X166596080Y-66572125D01*
X166604670Y-66577275D01*
X166612710Y-66583235D01*
X166620120Y-66589965D01*
X166626850Y-66597375D01*
X166632810Y-66605415D01*
X166637960Y-66614005D01*
X166642240Y-66623055D01*
X166645610Y-66632475D01*
X166648040Y-66642185D01*
X166649510Y-66652085D01*
X166650000Y-66662085D01*
X166650000Y-67970085D01*
X166649510Y-67980085D01*
X166648040Y-67989985D01*
X166645610Y-67999695D01*
X166642240Y-68009115D01*
X166637960Y-68018165D01*
X166632810Y-68026755D01*
X166626850Y-68034795D01*
X166620120Y-68042205D01*
X166612710Y-68048935D01*
X166604670Y-68054895D01*
X166596080Y-68060045D01*
X166587030Y-68064325D01*
X166577610Y-68067695D01*
X166567900Y-68070125D01*
X166558000Y-68071595D01*
X166548000Y-68072085D01*
X165240000Y-68072085D01*
X165230000Y-68071595D01*
X165220100Y-68070125D01*
X165210390Y-68067695D01*
X165200970Y-68064325D01*
X165191920Y-68060045D01*
X165183330Y-68054895D01*
X165175290Y-68048935D01*
X165167880Y-68042205D01*
X165161150Y-68034795D01*
X165155190Y-68026755D01*
X165150040Y-68018165D01*
X165145760Y-68009115D01*
X165142390Y-67999695D01*
X165139960Y-67989985D01*
X165138490Y-67980085D01*
X165138000Y-67970085D01*
X165138000Y-66662085D01*
X165138490Y-66652085D01*
X165139960Y-66642185D01*
X165142390Y-66632475D01*
X165145760Y-66623055D01*
X165150040Y-66614005D01*
X165155190Y-66605415D01*
X165161150Y-66597375D01*
X165167880Y-66589965D01*
X165175290Y-66583235D01*
X165183330Y-66577275D01*
X165191920Y-66572125D01*
X165200970Y-66567845D01*
X165210390Y-66564475D01*
X165220100Y-66562045D01*
X165230000Y-66560575D01*
X165240000Y-66560085D01*
X166548000Y-66560085D01*
X166558000Y-66560575D01*
G37*
G36*
X137778410Y-57353850D02*
G01*
X137856070Y-57365370D01*
X137932230Y-57384450D01*
X138006150Y-57410900D01*
X138077120Y-57444460D01*
X138144460Y-57484820D01*
X138207510Y-57531590D01*
X138265690Y-57584310D01*
X138318410Y-57642490D01*
X138365180Y-57705540D01*
X138405540Y-57772880D01*
X138439100Y-57843850D01*
X138465550Y-57917770D01*
X138484630Y-57993930D01*
X138496150Y-58071590D01*
X138500000Y-58150000D01*
X138496150Y-58228410D01*
X138484630Y-58306070D01*
X138465550Y-58382230D01*
X138439100Y-58456150D01*
X138405540Y-58527120D01*
X138365180Y-58594460D01*
X138318410Y-58657510D01*
X138265690Y-58715690D01*
X138207510Y-58768410D01*
X138144460Y-58815180D01*
X138077120Y-58855540D01*
X138006150Y-58889100D01*
X137932230Y-58915550D01*
X137856070Y-58934630D01*
X137778410Y-58946150D01*
X137700000Y-58950000D01*
X137500000Y-58950000D01*
X137300000Y-58950000D01*
X137221590Y-58946150D01*
X137143930Y-58934630D01*
X137067770Y-58915550D01*
X136993850Y-58889100D01*
X136922880Y-58855540D01*
X136855540Y-58815180D01*
X136792490Y-58768410D01*
X136734310Y-58715690D01*
X136681590Y-58657510D01*
X136634820Y-58594460D01*
X136594460Y-58527120D01*
X136560900Y-58456150D01*
X136534450Y-58382230D01*
X136515370Y-58306070D01*
X136503850Y-58228410D01*
X136500000Y-58150000D01*
X136503850Y-58071590D01*
X136515370Y-57993930D01*
X136534450Y-57917770D01*
X136560900Y-57843850D01*
X136594460Y-57772880D01*
X136634820Y-57705540D01*
X136681590Y-57642490D01*
X136734310Y-57584310D01*
X136792490Y-57531590D01*
X136855540Y-57484820D01*
X136922880Y-57444460D01*
X136993850Y-57410900D01*
X137067770Y-57384450D01*
X137143930Y-57365370D01*
X137221590Y-57353850D01*
X137300000Y-57350000D01*
X137700000Y-57350000D01*
X137778410Y-57353850D01*
G37*
G36*
X122274434Y-70112704D02*
G01*
X122352094Y-70124224D01*
X122428254Y-70143304D01*
X122502174Y-70169754D01*
X122573144Y-70203314D01*
X122640484Y-70243674D01*
X122703534Y-70290444D01*
X122761714Y-70343164D01*
X122814434Y-70401344D01*
X122861204Y-70464394D01*
X122901564Y-70531734D01*
X122935124Y-70602704D01*
X122961574Y-70676624D01*
X122980654Y-70752784D01*
X122992174Y-70830444D01*
X122996024Y-70908854D01*
X122992174Y-70987264D01*
X122980654Y-71064924D01*
X122961574Y-71141084D01*
X122935124Y-71215004D01*
X122901564Y-71285974D01*
X122861204Y-71353314D01*
X122814434Y-71416364D01*
X122761714Y-71474544D01*
X122703534Y-71527264D01*
X122640484Y-71574034D01*
X122573144Y-71614394D01*
X122502174Y-71647954D01*
X122428254Y-71674404D01*
X122352094Y-71693484D01*
X122274434Y-71705004D01*
X122196024Y-71708854D01*
X121996024Y-71708854D01*
X121796024Y-71708854D01*
X121717614Y-71705004D01*
X121639954Y-71693484D01*
X121563794Y-71674404D01*
X121489874Y-71647954D01*
X121418904Y-71614394D01*
X121351564Y-71574034D01*
X121288514Y-71527264D01*
X121230334Y-71474544D01*
X121177614Y-71416364D01*
X121130844Y-71353314D01*
X121090484Y-71285974D01*
X121056924Y-71215004D01*
X121030474Y-71141084D01*
X121011394Y-71064924D01*
X120999874Y-70987264D01*
X120996024Y-70908854D01*
X120999874Y-70830444D01*
X121011394Y-70752784D01*
X121030474Y-70676624D01*
X121056924Y-70602704D01*
X121090484Y-70531734D01*
X121130844Y-70464394D01*
X121177614Y-70401344D01*
X121230334Y-70343164D01*
X121288514Y-70290444D01*
X121351564Y-70243674D01*
X121418904Y-70203314D01*
X121489874Y-70169754D01*
X121563794Y-70143304D01*
X121639954Y-70124224D01*
X121717614Y-70112704D01*
X121796024Y-70108854D01*
X122196024Y-70108854D01*
X122274434Y-70112704D01*
G37*
G36*
X150922260Y-71992950D02*
G01*
X150999920Y-72004470D01*
X151076080Y-72023550D01*
X151150000Y-72050000D01*
X151220970Y-72083560D01*
X151288310Y-72123920D01*
X151351360Y-72170690D01*
X151409540Y-72223410D01*
X151462260Y-72281590D01*
X151509030Y-72344640D01*
X151549390Y-72411980D01*
X151582950Y-72482950D01*
X151609400Y-72556870D01*
X151628480Y-72633030D01*
X151640000Y-72710690D01*
X151643850Y-72789100D01*
X151643850Y-73189100D01*
X151640000Y-73267510D01*
X151628480Y-73345170D01*
X151609400Y-73421330D01*
X151582950Y-73495250D01*
X151549390Y-73566220D01*
X151509030Y-73633560D01*
X151462260Y-73696610D01*
X151409540Y-73754790D01*
X151351360Y-73807510D01*
X151288310Y-73854280D01*
X151220970Y-73894640D01*
X151150000Y-73928200D01*
X151076080Y-73954650D01*
X150999920Y-73973730D01*
X150922260Y-73985250D01*
X150843850Y-73989100D01*
X150765440Y-73985250D01*
X150687780Y-73973730D01*
X150611620Y-73954650D01*
X150537700Y-73928200D01*
X150466730Y-73894640D01*
X150399390Y-73854280D01*
X150336340Y-73807510D01*
X150278160Y-73754790D01*
X150225440Y-73696610D01*
X150178670Y-73633560D01*
X150138310Y-73566220D01*
X150104750Y-73495250D01*
X150078300Y-73421330D01*
X150059220Y-73345170D01*
X150047700Y-73267510D01*
X150043850Y-73189100D01*
X150043850Y-72989100D01*
X150043850Y-72789100D01*
X150047700Y-72710690D01*
X150059220Y-72633030D01*
X150078300Y-72556870D01*
X150104750Y-72482950D01*
X150138310Y-72411980D01*
X150178670Y-72344640D01*
X150225440Y-72281590D01*
X150278160Y-72223410D01*
X150336340Y-72170690D01*
X150399390Y-72123920D01*
X150466730Y-72083560D01*
X150537700Y-72050000D01*
X150611620Y-72023550D01*
X150687780Y-72004470D01*
X150765440Y-71992950D01*
X150843850Y-71989100D01*
X150922260Y-71992950D01*
G37*
G36*
X122318284Y-80421114D02*
G01*
X122395944Y-80432634D01*
X122472104Y-80451714D01*
X122546024Y-80478164D01*
X122616994Y-80511724D01*
X122684334Y-80552084D01*
X122747384Y-80598854D01*
X122805564Y-80651574D01*
X122858284Y-80709754D01*
X122905054Y-80772804D01*
X122945414Y-80840144D01*
X122978974Y-80911114D01*
X123005424Y-80985034D01*
X123024504Y-81061194D01*
X123036024Y-81138854D01*
X123039874Y-81217264D01*
X123036024Y-81295674D01*
X123024504Y-81373334D01*
X123005424Y-81449494D01*
X122978974Y-81523414D01*
X122945414Y-81594384D01*
X122905054Y-81661724D01*
X122858284Y-81724774D01*
X122805564Y-81782954D01*
X122747384Y-81835674D01*
X122684334Y-81882444D01*
X122616994Y-81922804D01*
X122546024Y-81956364D01*
X122472104Y-81982814D01*
X122395944Y-82001894D01*
X122318284Y-82013414D01*
X122239874Y-82017264D01*
X122039874Y-82017264D01*
X121839874Y-82017264D01*
X121761464Y-82013414D01*
X121683804Y-82001894D01*
X121607644Y-81982814D01*
X121533724Y-81956364D01*
X121462754Y-81922804D01*
X121395414Y-81882444D01*
X121332364Y-81835674D01*
X121274184Y-81782954D01*
X121221464Y-81724774D01*
X121174694Y-81661724D01*
X121134334Y-81594384D01*
X121100774Y-81523414D01*
X121074324Y-81449494D01*
X121055244Y-81373334D01*
X121043724Y-81295674D01*
X121039874Y-81217264D01*
X121043724Y-81138854D01*
X121055244Y-81061194D01*
X121074324Y-80985034D01*
X121100774Y-80911114D01*
X121134334Y-80840144D01*
X121174694Y-80772804D01*
X121221464Y-80709754D01*
X121274184Y-80651574D01*
X121332364Y-80598854D01*
X121395414Y-80552084D01*
X121462754Y-80511724D01*
X121533724Y-80478164D01*
X121607644Y-80451714D01*
X121683804Y-80432634D01*
X121761464Y-80421114D01*
X121839874Y-80417264D01*
X122239874Y-80417264D01*
X122318284Y-80421114D01*
G37*
G36*
X122274434Y-57252704D02*
G01*
X122352094Y-57264224D01*
X122428254Y-57283304D01*
X122502174Y-57309754D01*
X122573144Y-57343314D01*
X122640484Y-57383674D01*
X122703534Y-57430444D01*
X122761714Y-57483164D01*
X122814434Y-57541344D01*
X122861204Y-57604394D01*
X122901564Y-57671734D01*
X122935124Y-57742704D01*
X122961574Y-57816624D01*
X122980654Y-57892784D01*
X122992174Y-57970444D01*
X122996024Y-58048854D01*
X122992174Y-58127264D01*
X122980654Y-58204924D01*
X122961574Y-58281084D01*
X122935124Y-58355004D01*
X122901564Y-58425974D01*
X122861204Y-58493314D01*
X122814434Y-58556364D01*
X122761714Y-58614544D01*
X122703534Y-58667264D01*
X122640484Y-58714034D01*
X122573144Y-58754394D01*
X122502174Y-58787954D01*
X122428254Y-58814404D01*
X122352094Y-58833484D01*
X122274434Y-58845004D01*
X122196024Y-58848854D01*
X121996024Y-58848854D01*
X121796024Y-58848854D01*
X121717614Y-58845004D01*
X121639954Y-58833484D01*
X121563794Y-58814404D01*
X121489874Y-58787954D01*
X121418904Y-58754394D01*
X121351564Y-58714034D01*
X121288514Y-58667264D01*
X121230334Y-58614544D01*
X121177614Y-58556364D01*
X121130844Y-58493314D01*
X121090484Y-58425974D01*
X121056924Y-58355004D01*
X121030474Y-58281084D01*
X121011394Y-58204924D01*
X120999874Y-58127264D01*
X120996024Y-58048854D01*
X120999874Y-57970444D01*
X121011394Y-57892784D01*
X121030474Y-57816624D01*
X121056924Y-57742704D01*
X121090484Y-57671734D01*
X121130844Y-57604394D01*
X121177614Y-57541344D01*
X121230334Y-57483164D01*
X121288514Y-57430444D01*
X121351564Y-57383674D01*
X121418904Y-57343314D01*
X121489874Y-57309754D01*
X121563794Y-57283304D01*
X121639954Y-57264224D01*
X121717614Y-57252704D01*
X121796024Y-57248854D01*
X122196024Y-57248854D01*
X122274434Y-57252704D01*
G37*
G36*
X137778410Y-88153850D02*
G01*
X137856070Y-88165370D01*
X137932230Y-88184450D01*
X138006150Y-88210900D01*
X138077120Y-88244460D01*
X138144460Y-88284820D01*
X138207510Y-88331590D01*
X138265690Y-88384310D01*
X138318410Y-88442490D01*
X138365180Y-88505540D01*
X138405540Y-88572880D01*
X138439100Y-88643850D01*
X138465550Y-88717770D01*
X138484630Y-88793930D01*
X138496150Y-88871590D01*
X138500000Y-88950000D01*
X138496150Y-89028410D01*
X138484630Y-89106070D01*
X138465550Y-89182230D01*
X138439100Y-89256150D01*
X138405540Y-89327120D01*
X138365180Y-89394460D01*
X138318410Y-89457510D01*
X138265690Y-89515690D01*
X138207510Y-89568410D01*
X138144460Y-89615180D01*
X138077120Y-89655540D01*
X138006150Y-89689100D01*
X137932230Y-89715550D01*
X137856070Y-89734630D01*
X137778410Y-89746150D01*
X137700000Y-89750000D01*
X137500000Y-89750000D01*
X137300000Y-89750000D01*
X137221590Y-89746150D01*
X137143930Y-89734630D01*
X137067770Y-89715550D01*
X136993850Y-89689100D01*
X136922880Y-89655540D01*
X136855540Y-89615180D01*
X136792490Y-89568410D01*
X136734310Y-89515690D01*
X136681590Y-89457510D01*
X136634820Y-89394460D01*
X136594460Y-89327120D01*
X136560900Y-89256150D01*
X136534450Y-89182230D01*
X136515370Y-89106070D01*
X136503850Y-89028410D01*
X136500000Y-88950000D01*
X136503850Y-88871590D01*
X136515370Y-88793930D01*
X136534450Y-88717770D01*
X136560900Y-88643850D01*
X136594460Y-88572880D01*
X136634820Y-88505540D01*
X136681590Y-88442490D01*
X136734310Y-88384310D01*
X136792490Y-88331590D01*
X136855540Y-88284820D01*
X136922880Y-88244460D01*
X136993850Y-88210900D01*
X137067770Y-88184450D01*
X137143930Y-88165370D01*
X137221590Y-88153850D01*
X137300000Y-88150000D01*
X137700000Y-88150000D01*
X137778410Y-88153850D01*
G37*
G36*
X122274434Y-64932704D02*
G01*
X122352094Y-64944224D01*
X122428254Y-64963304D01*
X122502174Y-64989754D01*
X122573144Y-65023314D01*
X122640484Y-65063674D01*
X122703534Y-65110444D01*
X122761714Y-65163164D01*
X122814434Y-65221344D01*
X122861204Y-65284394D01*
X122901564Y-65351734D01*
X122935124Y-65422704D01*
X122961574Y-65496624D01*
X122980654Y-65572784D01*
X122992174Y-65650444D01*
X122996024Y-65728854D01*
X122992174Y-65807264D01*
X122980654Y-65884924D01*
X122961574Y-65961084D01*
X122935124Y-66035004D01*
X122901564Y-66105974D01*
X122861204Y-66173314D01*
X122814434Y-66236364D01*
X122761714Y-66294544D01*
X122703534Y-66347264D01*
X122640484Y-66394034D01*
X122573144Y-66434394D01*
X122502174Y-66467954D01*
X122428254Y-66494404D01*
X122352094Y-66513484D01*
X122274434Y-66525004D01*
X122196024Y-66528854D01*
X121996024Y-66528854D01*
X121796024Y-66528854D01*
X121717614Y-66525004D01*
X121639954Y-66513484D01*
X121563794Y-66494404D01*
X121489874Y-66467954D01*
X121418904Y-66434394D01*
X121351564Y-66394034D01*
X121288514Y-66347264D01*
X121230334Y-66294544D01*
X121177614Y-66236364D01*
X121130844Y-66173314D01*
X121090484Y-66105974D01*
X121056924Y-66035004D01*
X121030474Y-65961084D01*
X121011394Y-65884924D01*
X120999874Y-65807264D01*
X120996024Y-65728854D01*
X120999874Y-65650444D01*
X121011394Y-65572784D01*
X121030474Y-65496624D01*
X121056924Y-65422704D01*
X121090484Y-65351734D01*
X121130844Y-65284394D01*
X121177614Y-65221344D01*
X121230334Y-65163164D01*
X121288514Y-65110444D01*
X121351564Y-65063674D01*
X121418904Y-65023314D01*
X121489874Y-64989754D01*
X121563794Y-64963304D01*
X121639954Y-64944224D01*
X121717614Y-64932704D01*
X121796024Y-64928854D01*
X122196024Y-64928854D01*
X122274434Y-64932704D01*
G37*
G36*
X162230000Y-63820000D02*
G01*
X160230000Y-63820000D01*
X160230000Y-61820000D01*
X162230000Y-61820000D01*
X162230000Y-63820000D01*
G37*
G36*
X164500000Y-86132000D02*
G01*
X162976000Y-86132000D01*
X162976000Y-84608000D01*
X164500000Y-84608000D01*
X164500000Y-86132000D01*
G37*
G36*
X168900000Y-79182000D02*
G01*
X167376000Y-79182000D01*
X167376000Y-77658000D01*
X168900000Y-77658000D01*
X168900000Y-79182000D01*
G37*
G36*
X143128410Y-88253850D02*
G01*
X143206070Y-88265370D01*
X143282230Y-88284450D01*
X143356150Y-88310900D01*
X143427120Y-88344460D01*
X143494460Y-88384820D01*
X143557510Y-88431590D01*
X143615690Y-88484310D01*
X143668410Y-88542490D01*
X143715180Y-88605540D01*
X143755540Y-88672880D01*
X143789100Y-88743850D01*
X143815550Y-88817770D01*
X143834630Y-88893930D01*
X143846150Y-88971590D01*
X143850000Y-89050000D01*
X143850000Y-89450000D01*
X143846150Y-89528410D01*
X143834630Y-89606070D01*
X143815550Y-89682230D01*
X143789100Y-89756150D01*
X143755540Y-89827120D01*
X143715180Y-89894460D01*
X143668410Y-89957510D01*
X143615690Y-90015690D01*
X143557510Y-90068410D01*
X143494460Y-90115180D01*
X143427120Y-90155540D01*
X143356150Y-90189100D01*
X143282230Y-90215550D01*
X143206070Y-90234630D01*
X143128410Y-90246150D01*
X143050000Y-90250000D01*
X142971590Y-90246150D01*
X142893930Y-90234630D01*
X142817770Y-90215550D01*
X142743850Y-90189100D01*
X142672880Y-90155540D01*
X142605540Y-90115180D01*
X142542490Y-90068410D01*
X142484310Y-90015690D01*
X142431590Y-89957510D01*
X142384820Y-89894460D01*
X142344460Y-89827120D01*
X142310900Y-89756150D01*
X142284450Y-89682230D01*
X142265370Y-89606070D01*
X142253850Y-89528410D01*
X142250000Y-89450000D01*
X142250000Y-89250000D01*
X142250000Y-89050000D01*
X142253850Y-88971590D01*
X142265370Y-88893930D01*
X142284450Y-88817770D01*
X142310900Y-88743850D01*
X142344460Y-88672880D01*
X142384820Y-88605540D01*
X142431590Y-88542490D01*
X142484310Y-88484310D01*
X142542490Y-88431590D01*
X142605540Y-88384820D01*
X142672880Y-88344460D01*
X142743850Y-88310900D01*
X142817770Y-88284450D01*
X142893930Y-88265370D01*
X142971590Y-88253850D01*
X143050000Y-88250000D01*
X143128410Y-88253850D01*
G37*
G36*
X168950000Y-86182000D02*
G01*
X167426000Y-86182000D01*
X167426000Y-84658000D01*
X168950000Y-84658000D01*
X168950000Y-86182000D01*
G37*
G36*
X153522260Y-71992950D02*
G01*
X153599920Y-72004470D01*
X153676080Y-72023550D01*
X153750000Y-72050000D01*
X153820970Y-72083560D01*
X153888310Y-72123920D01*
X153951360Y-72170690D01*
X154009540Y-72223410D01*
X154062260Y-72281590D01*
X154109030Y-72344640D01*
X154149390Y-72411980D01*
X154182950Y-72482950D01*
X154209400Y-72556870D01*
X154228480Y-72633030D01*
X154240000Y-72710690D01*
X154243850Y-72789100D01*
X154243850Y-73189100D01*
X154240000Y-73267510D01*
X154228480Y-73345170D01*
X154209400Y-73421330D01*
X154182950Y-73495250D01*
X154149390Y-73566220D01*
X154109030Y-73633560D01*
X154062260Y-73696610D01*
X154009540Y-73754790D01*
X153951360Y-73807510D01*
X153888310Y-73854280D01*
X153820970Y-73894640D01*
X153750000Y-73928200D01*
X153676080Y-73954650D01*
X153599920Y-73973730D01*
X153522260Y-73985250D01*
X153443850Y-73989100D01*
X153365440Y-73985250D01*
X153287780Y-73973730D01*
X153211620Y-73954650D01*
X153137700Y-73928200D01*
X153066730Y-73894640D01*
X152999390Y-73854280D01*
X152936340Y-73807510D01*
X152878160Y-73754790D01*
X152825440Y-73696610D01*
X152778670Y-73633560D01*
X152738310Y-73566220D01*
X152704750Y-73495250D01*
X152678300Y-73421330D01*
X152659220Y-73345170D01*
X152647700Y-73267510D01*
X152643850Y-73189100D01*
X152643850Y-72989100D01*
X152643850Y-72789100D01*
X152647700Y-72710690D01*
X152659220Y-72633030D01*
X152678300Y-72556870D01*
X152704750Y-72482950D01*
X152738310Y-72411980D01*
X152778670Y-72344640D01*
X152825440Y-72281590D01*
X152878160Y-72223410D01*
X152936340Y-72170690D01*
X152999390Y-72123920D01*
X153066730Y-72083560D01*
X153137700Y-72050000D01*
X153211620Y-72023550D01*
X153287780Y-72004470D01*
X153365440Y-71992950D01*
X153443850Y-71989100D01*
X153522260Y-71992950D01*
G37*
G36*
X153528410Y-88253850D02*
G01*
X153606070Y-88265370D01*
X153682230Y-88284450D01*
X153756150Y-88310900D01*
X153827120Y-88344460D01*
X153894460Y-88384820D01*
X153957510Y-88431590D01*
X154015690Y-88484310D01*
X154068410Y-88542490D01*
X154115180Y-88605540D01*
X154155540Y-88672880D01*
X154189100Y-88743850D01*
X154215550Y-88817770D01*
X154234630Y-88893930D01*
X154246150Y-88971590D01*
X154250000Y-89050000D01*
X154250000Y-89450000D01*
X154246150Y-89528410D01*
X154234630Y-89606070D01*
X154215550Y-89682230D01*
X154189100Y-89756150D01*
X154155540Y-89827120D01*
X154115180Y-89894460D01*
X154068410Y-89957510D01*
X154015690Y-90015690D01*
X153957510Y-90068410D01*
X153894460Y-90115180D01*
X153827120Y-90155540D01*
X153756150Y-90189100D01*
X153682230Y-90215550D01*
X153606070Y-90234630D01*
X153528410Y-90246150D01*
X153450000Y-90250000D01*
X153371590Y-90246150D01*
X153293930Y-90234630D01*
X153217770Y-90215550D01*
X153143850Y-90189100D01*
X153072880Y-90155540D01*
X153005540Y-90115180D01*
X152942490Y-90068410D01*
X152884310Y-90015690D01*
X152831590Y-89957510D01*
X152784820Y-89894460D01*
X152744460Y-89827120D01*
X152710900Y-89756150D01*
X152684450Y-89682230D01*
X152665370Y-89606070D01*
X152653850Y-89528410D01*
X152650000Y-89450000D01*
X152650000Y-89250000D01*
X152650000Y-89050000D01*
X152653850Y-88971590D01*
X152665370Y-88893930D01*
X152684450Y-88817770D01*
X152710900Y-88743850D01*
X152744460Y-88672880D01*
X152784820Y-88605540D01*
X152831590Y-88542490D01*
X152884310Y-88484310D01*
X152942490Y-88431590D01*
X153005540Y-88384820D01*
X153072880Y-88344460D01*
X153143850Y-88310900D01*
X153217770Y-88284450D01*
X153293930Y-88265370D01*
X153371590Y-88253850D01*
X153450000Y-88250000D01*
X153528410Y-88253850D01*
G37*
G36*
X148322260Y-71992950D02*
G01*
X148399920Y-72004470D01*
X148476080Y-72023550D01*
X148550000Y-72050000D01*
X148620970Y-72083560D01*
X148688310Y-72123920D01*
X148751360Y-72170690D01*
X148809540Y-72223410D01*
X148862260Y-72281590D01*
X148909030Y-72344640D01*
X148949390Y-72411980D01*
X148982950Y-72482950D01*
X149009400Y-72556870D01*
X149028480Y-72633030D01*
X149040000Y-72710690D01*
X149043850Y-72789100D01*
X149043850Y-73189100D01*
X149040000Y-73267510D01*
X149028480Y-73345170D01*
X149009400Y-73421330D01*
X148982950Y-73495250D01*
X148949390Y-73566220D01*
X148909030Y-73633560D01*
X148862260Y-73696610D01*
X148809540Y-73754790D01*
X148751360Y-73807510D01*
X148688310Y-73854280D01*
X148620970Y-73894640D01*
X148550000Y-73928200D01*
X148476080Y-73954650D01*
X148399920Y-73973730D01*
X148322260Y-73985250D01*
X148243850Y-73989100D01*
X148165440Y-73985250D01*
X148087780Y-73973730D01*
X148011620Y-73954650D01*
X147937700Y-73928200D01*
X147866730Y-73894640D01*
X147799390Y-73854280D01*
X147736340Y-73807510D01*
X147678160Y-73754790D01*
X147625440Y-73696610D01*
X147578670Y-73633560D01*
X147538310Y-73566220D01*
X147504750Y-73495250D01*
X147478300Y-73421330D01*
X147459220Y-73345170D01*
X147447700Y-73267510D01*
X147443850Y-73189100D01*
X147443850Y-72989100D01*
X147443850Y-72789100D01*
X147447700Y-72710690D01*
X147459220Y-72633030D01*
X147478300Y-72556870D01*
X147504750Y-72482950D01*
X147538310Y-72411980D01*
X147578670Y-72344640D01*
X147625440Y-72281590D01*
X147678160Y-72223410D01*
X147736340Y-72170690D01*
X147799390Y-72123920D01*
X147866730Y-72083560D01*
X147937700Y-72050000D01*
X148011620Y-72023550D01*
X148087780Y-72004470D01*
X148165440Y-71992950D01*
X148243850Y-71989100D01*
X148322260Y-71992950D01*
G37*
G36*
X145722260Y-71992950D02*
G01*
X145799920Y-72004470D01*
X145876080Y-72023550D01*
X145950000Y-72050000D01*
X146020970Y-72083560D01*
X146088310Y-72123920D01*
X146151360Y-72170690D01*
X146209540Y-72223410D01*
X146262260Y-72281590D01*
X146309030Y-72344640D01*
X146349390Y-72411980D01*
X146382950Y-72482950D01*
X146409400Y-72556870D01*
X146428480Y-72633030D01*
X146440000Y-72710690D01*
X146443850Y-72789100D01*
X146443850Y-73189100D01*
X146440000Y-73267510D01*
X146428480Y-73345170D01*
X146409400Y-73421330D01*
X146382950Y-73495250D01*
X146349390Y-73566220D01*
X146309030Y-73633560D01*
X146262260Y-73696610D01*
X146209540Y-73754790D01*
X146151360Y-73807510D01*
X146088310Y-73854280D01*
X146020970Y-73894640D01*
X145950000Y-73928200D01*
X145876080Y-73954650D01*
X145799920Y-73973730D01*
X145722260Y-73985250D01*
X145643850Y-73989100D01*
X145565440Y-73985250D01*
X145487780Y-73973730D01*
X145411620Y-73954650D01*
X145337700Y-73928200D01*
X145266730Y-73894640D01*
X145199390Y-73854280D01*
X145136340Y-73807510D01*
X145078160Y-73754790D01*
X145025440Y-73696610D01*
X144978670Y-73633560D01*
X144938310Y-73566220D01*
X144904750Y-73495250D01*
X144878300Y-73421330D01*
X144859220Y-73345170D01*
X144847700Y-73267510D01*
X144843850Y-73189100D01*
X144843850Y-72989100D01*
X144843850Y-72789100D01*
X144847700Y-72710690D01*
X144859220Y-72633030D01*
X144878300Y-72556870D01*
X144904750Y-72482950D01*
X144938310Y-72411980D01*
X144978670Y-72344640D01*
X145025440Y-72281590D01*
X145078160Y-72223410D01*
X145136340Y-72170690D01*
X145199390Y-72123920D01*
X145266730Y-72083560D01*
X145337700Y-72050000D01*
X145411620Y-72023550D01*
X145487780Y-72004470D01*
X145565440Y-71992950D01*
X145643850Y-71989100D01*
X145722260Y-71992950D01*
G37*
G36*
X168788000Y-66570575D02*
G01*
X168797900Y-66572045D01*
X168807610Y-66574475D01*
X168817030Y-66577845D01*
X168826080Y-66582125D01*
X168834670Y-66587275D01*
X168842710Y-66593235D01*
X168850120Y-66599965D01*
X168856850Y-66607375D01*
X168862810Y-66615415D01*
X168867960Y-66624005D01*
X168872240Y-66633055D01*
X168875610Y-66642475D01*
X168878040Y-66652185D01*
X168879510Y-66662085D01*
X168880000Y-66672085D01*
X168880000Y-67980085D01*
X168879510Y-67990085D01*
X168878040Y-67999985D01*
X168875610Y-68009695D01*
X168872240Y-68019115D01*
X168867960Y-68028165D01*
X168862810Y-68036755D01*
X168856850Y-68044795D01*
X168850120Y-68052205D01*
X168842710Y-68058935D01*
X168834670Y-68064895D01*
X168826080Y-68070045D01*
X168817030Y-68074325D01*
X168807610Y-68077695D01*
X168797900Y-68080125D01*
X168788000Y-68081595D01*
X168778000Y-68082085D01*
X167470000Y-68082085D01*
X167460000Y-68081595D01*
X167450100Y-68080125D01*
X167440390Y-68077695D01*
X167430970Y-68074325D01*
X167421920Y-68070045D01*
X167413330Y-68064895D01*
X167405290Y-68058935D01*
X167397880Y-68052205D01*
X167391150Y-68044795D01*
X167385190Y-68036755D01*
X167380040Y-68028165D01*
X167375760Y-68019115D01*
X167372390Y-68009695D01*
X167369960Y-67999985D01*
X167368490Y-67990085D01*
X167368000Y-67980085D01*
X167368000Y-66672085D01*
X167368490Y-66662085D01*
X167369960Y-66652185D01*
X167372390Y-66642475D01*
X167375760Y-66633055D01*
X167380040Y-66624005D01*
X167385190Y-66615415D01*
X167391150Y-66607375D01*
X167397880Y-66599965D01*
X167405290Y-66593235D01*
X167413330Y-66587275D01*
X167421920Y-66582125D01*
X167430970Y-66577845D01*
X167440390Y-66574475D01*
X167450100Y-66572045D01*
X167460000Y-66570575D01*
X167470000Y-66570085D01*
X168778000Y-66570085D01*
X168788000Y-66570575D01*
G37*
G36*
X122278410Y-88203850D02*
G01*
X122356070Y-88215370D01*
X122432230Y-88234450D01*
X122506150Y-88260900D01*
X122577120Y-88294460D01*
X122644460Y-88334820D01*
X122707510Y-88381590D01*
X122765690Y-88434310D01*
X122818410Y-88492490D01*
X122865180Y-88555540D01*
X122905540Y-88622880D01*
X122939100Y-88693850D01*
X122965550Y-88767770D01*
X122984630Y-88843930D01*
X122996150Y-88921590D01*
X123000000Y-89000000D01*
X122996150Y-89078410D01*
X122984630Y-89156070D01*
X122965550Y-89232230D01*
X122939100Y-89306150D01*
X122905540Y-89377120D01*
X122865180Y-89444460D01*
X122818410Y-89507510D01*
X122765690Y-89565690D01*
X122707510Y-89618410D01*
X122644460Y-89665180D01*
X122577120Y-89705540D01*
X122506150Y-89739100D01*
X122432230Y-89765550D01*
X122356070Y-89784630D01*
X122278410Y-89796150D01*
X122200000Y-89800000D01*
X122000000Y-89800000D01*
X121800000Y-89800000D01*
X121721590Y-89796150D01*
X121643930Y-89784630D01*
X121567770Y-89765550D01*
X121493850Y-89739100D01*
X121422880Y-89705540D01*
X121355540Y-89665180D01*
X121292490Y-89618410D01*
X121234310Y-89565690D01*
X121181590Y-89507510D01*
X121134820Y-89444460D01*
X121094460Y-89377120D01*
X121060900Y-89306150D01*
X121034450Y-89232230D01*
X121015370Y-89156070D01*
X121003850Y-89078410D01*
X121000000Y-89000000D01*
X121003850Y-88921590D01*
X121015370Y-88843930D01*
X121034450Y-88767770D01*
X121060900Y-88693850D01*
X121094460Y-88622880D01*
X121134820Y-88555540D01*
X121181590Y-88492490D01*
X121234310Y-88434310D01*
X121292490Y-88381590D01*
X121355540Y-88334820D01*
X121422880Y-88294460D01*
X121493850Y-88260900D01*
X121567770Y-88234450D01*
X121643930Y-88215370D01*
X121721590Y-88203850D01*
X121800000Y-88200000D01*
X122200000Y-88200000D01*
X122278410Y-88203850D01*
G37*
G36*
X122294434Y-77803850D02*
G01*
X122372094Y-77815370D01*
X122448254Y-77834450D01*
X122522174Y-77860900D01*
X122593144Y-77894460D01*
X122660484Y-77934820D01*
X122723534Y-77981590D01*
X122781714Y-78034310D01*
X122834434Y-78092490D01*
X122881204Y-78155540D01*
X122921564Y-78222880D01*
X122955124Y-78293850D01*
X122981574Y-78367770D01*
X123000654Y-78443930D01*
X123012174Y-78521590D01*
X123016024Y-78600000D01*
X123012174Y-78678410D01*
X123000654Y-78756070D01*
X122981574Y-78832230D01*
X122955124Y-78906150D01*
X122921564Y-78977120D01*
X122881204Y-79044460D01*
X122834434Y-79107510D01*
X122781714Y-79165690D01*
X122723534Y-79218410D01*
X122660484Y-79265180D01*
X122593144Y-79305540D01*
X122522174Y-79339100D01*
X122448254Y-79365550D01*
X122372094Y-79384630D01*
X122294434Y-79396150D01*
X122216024Y-79400000D01*
X122016024Y-79400000D01*
X121816024Y-79400000D01*
X121737614Y-79396150D01*
X121659954Y-79384630D01*
X121583794Y-79365550D01*
X121509874Y-79339100D01*
X121438904Y-79305540D01*
X121371564Y-79265180D01*
X121308514Y-79218410D01*
X121250334Y-79165690D01*
X121197614Y-79107510D01*
X121150844Y-79044460D01*
X121110484Y-78977120D01*
X121076924Y-78906150D01*
X121050474Y-78832230D01*
X121031394Y-78756070D01*
X121019874Y-78678410D01*
X121016024Y-78600000D01*
X121019874Y-78521590D01*
X121031394Y-78443930D01*
X121050474Y-78367770D01*
X121076924Y-78293850D01*
X121110484Y-78222880D01*
X121150844Y-78155540D01*
X121197614Y-78092490D01*
X121250334Y-78034310D01*
X121308514Y-77981590D01*
X121371564Y-77934820D01*
X121438904Y-77894460D01*
X121509874Y-77860900D01*
X121583794Y-77834450D01*
X121659954Y-77815370D01*
X121737614Y-77803850D01*
X121816024Y-77800000D01*
X122216024Y-77800000D01*
X122294434Y-77803850D01*
G37*
G36*
X122294434Y-72721558D02*
G01*
X122372094Y-72733078D01*
X122448254Y-72752158D01*
X122522174Y-72778608D01*
X122593144Y-72812168D01*
X122660484Y-72852528D01*
X122723534Y-72899298D01*
X122781714Y-72952018D01*
X122834434Y-73010198D01*
X122881204Y-73073248D01*
X122921564Y-73140588D01*
X122955124Y-73211558D01*
X122981574Y-73285478D01*
X123000654Y-73361638D01*
X123012174Y-73439298D01*
X123016024Y-73517708D01*
X123012174Y-73596118D01*
X123000654Y-73673778D01*
X122981574Y-73749938D01*
X122955124Y-73823858D01*
X122921564Y-73894828D01*
X122881204Y-73962168D01*
X122834434Y-74025218D01*
X122781714Y-74083398D01*
X122723534Y-74136118D01*
X122660484Y-74182888D01*
X122593144Y-74223248D01*
X122522174Y-74256808D01*
X122448254Y-74283258D01*
X122372094Y-74302338D01*
X122294434Y-74313858D01*
X122216024Y-74317708D01*
X122016024Y-74317708D01*
X121816024Y-74317708D01*
X121737614Y-74313858D01*
X121659954Y-74302338D01*
X121583794Y-74283258D01*
X121509874Y-74256808D01*
X121438904Y-74223248D01*
X121371564Y-74182888D01*
X121308514Y-74136118D01*
X121250334Y-74083398D01*
X121197614Y-74025218D01*
X121150844Y-73962168D01*
X121110484Y-73894828D01*
X121076924Y-73823858D01*
X121050474Y-73749938D01*
X121031394Y-73673778D01*
X121019874Y-73596118D01*
X121016024Y-73517708D01*
X121019874Y-73439298D01*
X121031394Y-73361638D01*
X121050474Y-73285478D01*
X121076924Y-73211558D01*
X121110484Y-73140588D01*
X121150844Y-73073248D01*
X121197614Y-73010198D01*
X121250334Y-72952018D01*
X121308514Y-72899298D01*
X121371564Y-72852528D01*
X121438904Y-72812168D01*
X121509874Y-72778608D01*
X121583794Y-72752158D01*
X121659954Y-72733078D01*
X121737614Y-72721558D01*
X121816024Y-72717708D01*
X122216024Y-72717708D01*
X122294434Y-72721558D01*
G37*
G36*
X137778410Y-62403850D02*
G01*
X137856070Y-62415370D01*
X137932230Y-62434450D01*
X138006150Y-62460900D01*
X138077120Y-62494460D01*
X138144460Y-62534820D01*
X138207510Y-62581590D01*
X138265690Y-62634310D01*
X138318410Y-62692490D01*
X138365180Y-62755540D01*
X138405540Y-62822880D01*
X138439100Y-62893850D01*
X138465550Y-62967770D01*
X138484630Y-63043930D01*
X138496150Y-63121590D01*
X138500000Y-63200000D01*
X138496150Y-63278410D01*
X138484630Y-63356070D01*
X138465550Y-63432230D01*
X138439100Y-63506150D01*
X138405540Y-63577120D01*
X138365180Y-63644460D01*
X138318410Y-63707510D01*
X138265690Y-63765690D01*
X138207510Y-63818410D01*
X138144460Y-63865180D01*
X138077120Y-63905540D01*
X138006150Y-63939100D01*
X137932230Y-63965550D01*
X137856070Y-63984630D01*
X137778410Y-63996150D01*
X137700000Y-64000000D01*
X137500000Y-64000000D01*
X137300000Y-64000000D01*
X137221590Y-63996150D01*
X137143930Y-63984630D01*
X137067770Y-63965550D01*
X136993850Y-63939100D01*
X136922880Y-63905540D01*
X136855540Y-63865180D01*
X136792490Y-63818410D01*
X136734310Y-63765690D01*
X136681590Y-63707510D01*
X136634820Y-63644460D01*
X136594460Y-63577120D01*
X136560900Y-63506150D01*
X136534450Y-63432230D01*
X136515370Y-63356070D01*
X136503850Y-63278410D01*
X136500000Y-63200000D01*
X136503850Y-63121590D01*
X136515370Y-63043930D01*
X136534450Y-62967770D01*
X136560900Y-62893850D01*
X136594460Y-62822880D01*
X136634820Y-62755540D01*
X136681590Y-62692490D01*
X136734310Y-62634310D01*
X136792490Y-62581590D01*
X136855540Y-62534820D01*
X136922880Y-62494460D01*
X136993850Y-62460900D01*
X137067770Y-62434450D01*
X137143930Y-62415370D01*
X137221590Y-62403850D01*
X137300000Y-62400000D01*
X137700000Y-62400000D01*
X137778410Y-62403850D01*
G37*
G36*
X156122260Y-71992950D02*
G01*
X156199920Y-72004470D01*
X156276080Y-72023550D01*
X156350000Y-72050000D01*
X156420970Y-72083560D01*
X156488310Y-72123920D01*
X156551360Y-72170690D01*
X156609540Y-72223410D01*
X156662260Y-72281590D01*
X156709030Y-72344640D01*
X156749390Y-72411980D01*
X156782950Y-72482950D01*
X156809400Y-72556870D01*
X156828480Y-72633030D01*
X156840000Y-72710690D01*
X156843850Y-72789100D01*
X156843850Y-73189100D01*
X156840000Y-73267510D01*
X156828480Y-73345170D01*
X156809400Y-73421330D01*
X156782950Y-73495250D01*
X156749390Y-73566220D01*
X156709030Y-73633560D01*
X156662260Y-73696610D01*
X156609540Y-73754790D01*
X156551360Y-73807510D01*
X156488310Y-73854280D01*
X156420970Y-73894640D01*
X156350000Y-73928200D01*
X156276080Y-73954650D01*
X156199920Y-73973730D01*
X156122260Y-73985250D01*
X156043850Y-73989100D01*
X155965440Y-73985250D01*
X155887780Y-73973730D01*
X155811620Y-73954650D01*
X155737700Y-73928200D01*
X155666730Y-73894640D01*
X155599390Y-73854280D01*
X155536340Y-73807510D01*
X155478160Y-73754790D01*
X155425440Y-73696610D01*
X155378670Y-73633560D01*
X155338310Y-73566220D01*
X155304750Y-73495250D01*
X155278300Y-73421330D01*
X155259220Y-73345170D01*
X155247700Y-73267510D01*
X155243850Y-73189100D01*
X155243850Y-72989100D01*
X155243850Y-72789100D01*
X155247700Y-72710690D01*
X155259220Y-72633030D01*
X155278300Y-72556870D01*
X155304750Y-72482950D01*
X155338310Y-72411980D01*
X155378670Y-72344640D01*
X155425440Y-72281590D01*
X155478160Y-72223410D01*
X155536340Y-72170690D01*
X155599390Y-72123920D01*
X155666730Y-72083560D01*
X155737700Y-72050000D01*
X155811620Y-72023550D01*
X155887780Y-72004470D01*
X155965440Y-71992950D01*
X156043850Y-71989100D01*
X156122260Y-71992950D01*
G37*
G36*
X122274434Y-62402704D02*
G01*
X122352094Y-62414224D01*
X122428254Y-62433304D01*
X122502174Y-62459754D01*
X122573144Y-62493314D01*
X122640484Y-62533674D01*
X122703534Y-62580444D01*
X122761714Y-62633164D01*
X122814434Y-62691344D01*
X122861204Y-62754394D01*
X122901564Y-62821734D01*
X122935124Y-62892704D01*
X122961574Y-62966624D01*
X122980654Y-63042784D01*
X122992174Y-63120444D01*
X122996024Y-63198854D01*
X122992174Y-63277264D01*
X122980654Y-63354924D01*
X122961574Y-63431084D01*
X122935124Y-63505004D01*
X122901564Y-63575974D01*
X122861204Y-63643314D01*
X122814434Y-63706364D01*
X122761714Y-63764544D01*
X122703534Y-63817264D01*
X122640484Y-63864034D01*
X122573144Y-63904394D01*
X122502174Y-63937954D01*
X122428254Y-63964404D01*
X122352094Y-63983484D01*
X122274434Y-63995004D01*
X122196024Y-63998854D01*
X121996024Y-63998854D01*
X121796024Y-63998854D01*
X121717614Y-63995004D01*
X121639954Y-63983484D01*
X121563794Y-63964404D01*
X121489874Y-63937954D01*
X121418904Y-63904394D01*
X121351564Y-63864034D01*
X121288514Y-63817264D01*
X121230334Y-63764544D01*
X121177614Y-63706364D01*
X121130844Y-63643314D01*
X121090484Y-63575974D01*
X121056924Y-63505004D01*
X121030474Y-63431084D01*
X121011394Y-63354924D01*
X120999874Y-63277264D01*
X120996024Y-63198854D01*
X120999874Y-63120444D01*
X121011394Y-63042784D01*
X121030474Y-62966624D01*
X121056924Y-62892704D01*
X121090484Y-62821734D01*
X121130844Y-62754394D01*
X121177614Y-62691344D01*
X121230334Y-62633164D01*
X121288514Y-62580444D01*
X121351564Y-62533674D01*
X121418904Y-62493314D01*
X121489874Y-62459754D01*
X121563794Y-62433304D01*
X121639954Y-62414224D01*
X121717614Y-62402704D01*
X121796024Y-62398854D01*
X122196024Y-62398854D01*
X122274434Y-62402704D01*
G37*
G36*
X143122260Y-71992950D02*
G01*
X143199920Y-72004470D01*
X143276080Y-72023550D01*
X143350000Y-72050000D01*
X143420970Y-72083560D01*
X143488310Y-72123920D01*
X143551360Y-72170690D01*
X143609540Y-72223410D01*
X143662260Y-72281590D01*
X143709030Y-72344640D01*
X143749390Y-72411980D01*
X143782950Y-72482950D01*
X143809400Y-72556870D01*
X143828480Y-72633030D01*
X143840000Y-72710690D01*
X143843850Y-72789100D01*
X143843850Y-73189100D01*
X143840000Y-73267510D01*
X143828480Y-73345170D01*
X143809400Y-73421330D01*
X143782950Y-73495250D01*
X143749390Y-73566220D01*
X143709030Y-73633560D01*
X143662260Y-73696610D01*
X143609540Y-73754790D01*
X143551360Y-73807510D01*
X143488310Y-73854280D01*
X143420970Y-73894640D01*
X143350000Y-73928200D01*
X143276080Y-73954650D01*
X143199920Y-73973730D01*
X143122260Y-73985250D01*
X143043850Y-73989100D01*
X142965440Y-73985250D01*
X142887780Y-73973730D01*
X142811620Y-73954650D01*
X142737700Y-73928200D01*
X142666730Y-73894640D01*
X142599390Y-73854280D01*
X142536340Y-73807510D01*
X142478160Y-73754790D01*
X142425440Y-73696610D01*
X142378670Y-73633560D01*
X142338310Y-73566220D01*
X142304750Y-73495250D01*
X142278300Y-73421330D01*
X142259220Y-73345170D01*
X142247700Y-73267510D01*
X142243850Y-73189100D01*
X142243850Y-72989100D01*
X142243850Y-72789100D01*
X142247700Y-72710690D01*
X142259220Y-72633030D01*
X142278300Y-72556870D01*
X142304750Y-72482950D01*
X142338310Y-72411980D01*
X142378670Y-72344640D01*
X142425440Y-72281590D01*
X142478160Y-72223410D01*
X142536340Y-72170690D01*
X142599390Y-72123920D01*
X142666730Y-72083560D01*
X142737700Y-72050000D01*
X142811620Y-72023550D01*
X142887780Y-72004470D01*
X142965440Y-71992950D01*
X143043850Y-71989100D01*
X143122260Y-71992950D01*
G37*
M02*
