%TF.GenerationSoftware,KiCad,Pcbnew,9.0.3*%
%TF.CreationDate,2025-08-13T01:08:13-07:00*%
%TF.ProjectId,TGslimeblahbal,5447736c-696d-4656-926c-616862616c2e,rev?*%
%TF.SameCoordinates,Original*%
%TF.FileFunction,Profile,NP*%
%FSLAX46Y46*%
G04 Gerber Fmt 4.6, Leading zero omitted, Abs format (unit mm)*
G04 Created by KiCad (PCBNEW 9.0.3) date 2025-08-13 01:08:13*
%MOMM*%
%LPD*%
G01*
G04 APERTURE LIST*
%TA.AperFunction,Profile*%
%ADD10C,0.100000*%
%TD*%
%TA.AperFunction,Profile*%
%ADD11C,0.500000*%
%TD*%
%TA.AperFunction,Profile*%
%ADD12C,0.050000*%
%TD*%
%TA.AperFunction,Profile*%
%ADD13C,0.080000*%
%TD*%
%TA.AperFunction,Profile*%
%ADD14C,0.400000*%
%TD*%
G04 APERTURE END LIST*
D10*
X163188000Y-78470000D02*
X164188000Y-78470000D01*
X153943850Y-72989100D02*
X152943850Y-72989100D01*
X151343850Y-72989100D02*
X150343850Y-72989100D01*
X137500000Y-62700000D02*
X137500000Y-63700000D01*
D11*
X122246024Y-58048854D02*
G75*
G02*
X121746024Y-58048854I-250000J0D01*
G01*
X121746024Y-58048854D02*
G75*
G02*
X122246024Y-58048854I250000J0D01*
G01*
D10*
X167638000Y-78420000D02*
X168638000Y-78420000D01*
D11*
X137750000Y-88950000D02*
G75*
G02*
X137250000Y-88950000I-250000J0D01*
G01*
X137250000Y-88950000D02*
G75*
G02*
X137750000Y-88950000I250000J0D01*
G01*
D10*
X168138000Y-78920000D02*
X168138000Y-77920000D01*
D11*
X122246024Y-60688854D02*
G75*
G02*
X121746024Y-60688854I-250000J0D01*
G01*
X121746024Y-60688854D02*
G75*
G02*
X122246024Y-60688854I250000J0D01*
G01*
D10*
X153443850Y-73489100D02*
X153443850Y-72489100D01*
D11*
X161480000Y-62820000D02*
G75*
G02*
X160980000Y-62820000I-250000J0D01*
G01*
X160980000Y-62820000D02*
G75*
G02*
X161480000Y-62820000I250000J0D01*
G01*
X168388000Y-78420000D02*
G75*
G02*
X167888000Y-78420000I-250000J0D01*
G01*
X167888000Y-78420000D02*
G75*
G02*
X168388000Y-78420000I250000J0D01*
G01*
D10*
X143550000Y-89250000D02*
X142550000Y-89250000D01*
X122516024Y-73517708D02*
X121516024Y-73517708D01*
D11*
X122266024Y-73517708D02*
G75*
G02*
X121766024Y-73517708I-250000J0D01*
G01*
X121766024Y-73517708D02*
G75*
G02*
X122266024Y-73517708I250000J0D01*
G01*
D10*
X122496024Y-60688854D02*
X121496024Y-60688854D01*
X164200000Y-78450000D02*
G75*
G02*
X163200000Y-78450000I-500000J0D01*
G01*
X163200000Y-78450000D02*
G75*
G02*
X164200000Y-78450000I500000J0D01*
G01*
X121996024Y-57548854D02*
X121996024Y-58548854D01*
X122539874Y-81217264D02*
X121539874Y-81217264D01*
X122000000Y-88500000D02*
X122000000Y-89500000D01*
D11*
X168438000Y-85420000D02*
G75*
G02*
X167938000Y-85420000I-250000J0D01*
G01*
X167938000Y-85420000D02*
G75*
G02*
X168438000Y-85420000I250000J0D01*
G01*
D10*
X146143850Y-72989100D02*
X145143850Y-72989100D01*
X138000000Y-58150000D02*
X137000000Y-58150000D01*
X168650000Y-85400000D02*
G75*
G02*
X167650000Y-85400000I-500000J0D01*
G01*
X167650000Y-85400000D02*
G75*
G02*
X168650000Y-85400000I500000J0D01*
G01*
X161230000Y-62320000D02*
X161230000Y-63320000D01*
X168188000Y-85920000D02*
X168188000Y-84920000D01*
D12*
X124700000Y-91100000D02*
X165700000Y-91100000D01*
X165700000Y-94100000D01*
X124700000Y-94100000D01*
X124700000Y-91100000D01*
D10*
X148243850Y-73489100D02*
X148243850Y-72489100D01*
X137500000Y-57650000D02*
X137500000Y-58650000D01*
D11*
X137750000Y-63200000D02*
G75*
G02*
X137250000Y-63200000I-250000J0D01*
G01*
X137250000Y-63200000D02*
G75*
G02*
X137750000Y-63200000I250000J0D01*
G01*
D10*
X161700000Y-62800000D02*
G75*
G02*
X160700000Y-62800000I-500000J0D01*
G01*
X160700000Y-62800000D02*
G75*
G02*
X161700000Y-62800000I500000J0D01*
G01*
X122016024Y-78100000D02*
X122016024Y-79100000D01*
D11*
X156293850Y-72989100D02*
G75*
G02*
X155793850Y-72989100I-250000J0D01*
G01*
X155793850Y-72989100D02*
G75*
G02*
X156293850Y-72989100I250000J0D01*
G01*
X137750000Y-58150000D02*
G75*
G02*
X137250000Y-58150000I-250000J0D01*
G01*
X137250000Y-58150000D02*
G75*
G02*
X137750000Y-58150000I250000J0D01*
G01*
D10*
X138000000Y-58150000D02*
G75*
G02*
X137000000Y-58150000I-500000J0D01*
G01*
X137000000Y-58150000D02*
G75*
G02*
X138000000Y-58150000I500000J0D01*
G01*
X122016024Y-75558854D02*
X122016024Y-76558854D01*
D11*
X161460000Y-58340000D02*
G75*
G02*
X160960000Y-58340000I-250000J0D01*
G01*
X160960000Y-58340000D02*
G75*
G02*
X161460000Y-58340000I250000J0D01*
G01*
X122246024Y-63198854D02*
G75*
G02*
X121746024Y-63198854I-250000J0D01*
G01*
X121746024Y-63198854D02*
G75*
G02*
X122246024Y-63198854I250000J0D01*
G01*
X163988000Y-85370000D02*
G75*
G02*
X163488000Y-85370000I-250000J0D01*
G01*
X163488000Y-85370000D02*
G75*
G02*
X163988000Y-85370000I250000J0D01*
G01*
D12*
X170350000Y-53430000D02*
X168350000Y-51430000D01*
D13*
X168434000Y-59776085D02*
G75*
G02*
X167634000Y-59776085I-400000J0D01*
G01*
X167634000Y-59776085D02*
G75*
G02*
X168434000Y-59776085I400000J0D01*
G01*
D12*
X120020000Y-93050000D02*
X120020000Y-53430000D01*
D10*
X160730000Y-62820000D02*
X161730000Y-62820000D01*
X160710000Y-58340000D02*
X161710000Y-58340000D01*
X122516024Y-76058854D02*
X121516024Y-76058854D01*
X122496024Y-63198854D02*
X121496024Y-63198854D01*
D11*
X145893850Y-72989100D02*
G75*
G02*
X145393850Y-72989100I-250000J0D01*
G01*
X145393850Y-72989100D02*
G75*
G02*
X145893850Y-72989100I250000J0D01*
G01*
D10*
X122516024Y-76058854D02*
X121516024Y-76058854D01*
D11*
X143293850Y-72989100D02*
G75*
G02*
X142793850Y-72989100I-250000J0D01*
G01*
X142793850Y-72989100D02*
G75*
G02*
X143293850Y-72989100I250000J0D01*
G01*
X122266024Y-76058854D02*
G75*
G02*
X121766024Y-76058854I-250000J0D01*
G01*
X121766024Y-76058854D02*
G75*
G02*
X122266024Y-76058854I250000J0D01*
G01*
D10*
X137500000Y-88450000D02*
X137500000Y-89450000D01*
X153950000Y-89250000D02*
X152950000Y-89250000D01*
X121996024Y-70408854D02*
X121996024Y-71408854D01*
X122496024Y-65728854D02*
X121496024Y-65728854D01*
D11*
X137650000Y-68400000D02*
G75*
G02*
X137150000Y-68400000I-250000J0D01*
G01*
X137150000Y-68400000D02*
G75*
G02*
X137650000Y-68400000I250000J0D01*
G01*
D10*
X163738000Y-85870000D02*
X163738000Y-84870000D01*
X122500000Y-89000000D02*
X121500000Y-89000000D01*
D12*
X168350000Y-51430000D02*
X122020000Y-51430000D01*
D10*
X167688000Y-85420000D02*
X168688000Y-85420000D01*
D11*
X143300000Y-89250000D02*
G75*
G02*
X142800000Y-89250000I-250000J0D01*
G01*
X142800000Y-89250000D02*
G75*
G02*
X143300000Y-89250000I250000J0D01*
G01*
D12*
X167424264Y-65075736D02*
G75*
G02*
X166575736Y-65075736I-424264J0D01*
G01*
X166575736Y-65075736D02*
G75*
G02*
X167424264Y-65075736I424264J0D01*
G01*
D10*
X156043850Y-73489100D02*
X156043850Y-72489100D01*
X137400000Y-67900000D02*
X137400000Y-68900000D01*
X143050000Y-89750000D02*
X143050000Y-88750000D01*
X122016024Y-75558854D02*
X122016024Y-76558854D01*
X138000000Y-63200000D02*
G75*
G02*
X137000000Y-63200000I-500000J0D01*
G01*
X137000000Y-63200000D02*
G75*
G02*
X138000000Y-63200000I500000J0D01*
G01*
D11*
X122250000Y-89000000D02*
G75*
G02*
X121750000Y-89000000I-250000J0D01*
G01*
X121750000Y-89000000D02*
G75*
G02*
X122250000Y-89000000I250000J0D01*
G01*
D12*
X168350000Y-95050000D02*
X122020000Y-95050000D01*
D10*
X150843850Y-73489100D02*
X150843850Y-72489100D01*
X145643850Y-73489100D02*
X145643850Y-72489100D01*
X138000000Y-88950000D02*
X137000000Y-88950000D01*
D11*
X122266024Y-76058854D02*
G75*
G02*
X121766024Y-76058854I-250000J0D01*
G01*
X121766024Y-76058854D02*
G75*
G02*
X122266024Y-76058854I250000J0D01*
G01*
D10*
X121996024Y-60188854D02*
X121996024Y-61188854D01*
D14*
X166094000Y-67316085D02*
G75*
G02*
X165694000Y-67316085I-200000J0D01*
G01*
X165694000Y-67316085D02*
G75*
G02*
X166094000Y-67316085I200000J0D01*
G01*
D10*
X143543850Y-72989100D02*
X142543850Y-72989100D01*
X138000000Y-63200000D02*
X137000000Y-63200000D01*
D14*
X168234000Y-59776085D02*
G75*
G02*
X167834000Y-59776085I-200000J0D01*
G01*
X167834000Y-59776085D02*
G75*
G02*
X168234000Y-59776085I200000J0D01*
G01*
D10*
X143043850Y-73489100D02*
X143043850Y-72489100D01*
X122039874Y-80717264D02*
X122039874Y-81717264D01*
X121996024Y-65228854D02*
X121996024Y-66228854D01*
D12*
X167424264Y-62050000D02*
G75*
G02*
X166575736Y-62050000I-424264J0D01*
G01*
X166575736Y-62050000D02*
G75*
G02*
X167424264Y-62050000I424264J0D01*
G01*
D13*
X166244000Y-59796085D02*
G75*
G02*
X165444000Y-59796085I-400000J0D01*
G01*
X165444000Y-59796085D02*
G75*
G02*
X166244000Y-59796085I400000J0D01*
G01*
D11*
X153693850Y-72989100D02*
G75*
G02*
X153193850Y-72989100I-250000J0D01*
G01*
X153193850Y-72989100D02*
G75*
G02*
X153693850Y-72989100I250000J0D01*
G01*
D13*
X168524000Y-67326085D02*
G75*
G02*
X167724000Y-67326085I-400000J0D01*
G01*
X167724000Y-67326085D02*
G75*
G02*
X168524000Y-67326085I400000J0D01*
G01*
D11*
X122246024Y-70908854D02*
G75*
G02*
X121746024Y-70908854I-250000J0D01*
G01*
X121746024Y-70908854D02*
G75*
G02*
X122246024Y-70908854I250000J0D01*
G01*
D10*
X137900000Y-68400000D02*
X136900000Y-68400000D01*
D11*
X148493850Y-72989100D02*
G75*
G02*
X147993850Y-72989100I-250000J0D01*
G01*
X147993850Y-72989100D02*
G75*
G02*
X148493850Y-72989100I250000J0D01*
G01*
D10*
X163238000Y-85370000D02*
X164238000Y-85370000D01*
D12*
X120020000Y-93050000D02*
X122020000Y-95050000D01*
D10*
X148743850Y-72989100D02*
X147743850Y-72989100D01*
D11*
X122266024Y-78600000D02*
G75*
G02*
X121766024Y-78600000I-250000J0D01*
G01*
X121766024Y-78600000D02*
G75*
G02*
X122266024Y-78600000I250000J0D01*
G01*
D14*
X168324000Y-67326085D02*
G75*
G02*
X167924000Y-67326085I-200000J0D01*
G01*
X167924000Y-67326085D02*
G75*
G02*
X168324000Y-67326085I200000J0D01*
G01*
X166044000Y-59796085D02*
G75*
G02*
X165644000Y-59796085I-200000J0D01*
G01*
X165644000Y-59796085D02*
G75*
G02*
X166044000Y-59796085I200000J0D01*
G01*
D10*
X163688000Y-78970000D02*
X163688000Y-77970000D01*
D12*
X170350000Y-93050000D02*
X168350000Y-95050000D01*
X120020000Y-53430000D02*
X122020000Y-51430000D01*
D11*
X153700000Y-89250000D02*
G75*
G02*
X153200000Y-89250000I-250000J0D01*
G01*
X153200000Y-89250000D02*
G75*
G02*
X153700000Y-89250000I250000J0D01*
G01*
D10*
X122516024Y-78600000D02*
X121516024Y-78600000D01*
X161700000Y-58350000D02*
G75*
G02*
X160700000Y-58350000I-500000J0D01*
G01*
X160700000Y-58350000D02*
G75*
G02*
X161700000Y-58350000I500000J0D01*
G01*
X161210000Y-57840000D02*
X161210000Y-58840000D01*
X121996024Y-62698854D02*
X121996024Y-63698854D01*
X156543850Y-72989100D02*
X155543850Y-72989100D01*
X122496024Y-70908854D02*
X121496024Y-70908854D01*
X122016024Y-73017708D02*
X122016024Y-74017708D01*
X168650000Y-78400000D02*
G75*
G02*
X167650000Y-78400000I-500000J0D01*
G01*
X167650000Y-78400000D02*
G75*
G02*
X168650000Y-78400000I500000J0D01*
G01*
D11*
X151093850Y-72989100D02*
G75*
G02*
X150593850Y-72989100I-250000J0D01*
G01*
X150593850Y-72989100D02*
G75*
G02*
X151093850Y-72989100I250000J0D01*
G01*
D10*
X122496024Y-58048854D02*
X121496024Y-58048854D01*
D12*
X124700000Y-52400000D02*
X165700000Y-52400000D01*
X165700000Y-55400000D01*
X124700000Y-55400000D01*
X124700000Y-52400000D01*
D13*
X166294000Y-67316085D02*
G75*
G02*
X165494000Y-67316085I-400000J0D01*
G01*
X165494000Y-67316085D02*
G75*
G02*
X166294000Y-67316085I400000J0D01*
G01*
D10*
X153450000Y-89750000D02*
X153450000Y-88750000D01*
D11*
X122289874Y-81217264D02*
G75*
G02*
X121789874Y-81217264I-250000J0D01*
G01*
X121789874Y-81217264D02*
G75*
G02*
X122289874Y-81217264I250000J0D01*
G01*
X163938000Y-78470000D02*
G75*
G02*
X163438000Y-78470000I-250000J0D01*
G01*
X163438000Y-78470000D02*
G75*
G02*
X163938000Y-78470000I250000J0D01*
G01*
X122246024Y-65728854D02*
G75*
G02*
X121746024Y-65728854I-250000J0D01*
G01*
X121746024Y-65728854D02*
G75*
G02*
X122246024Y-65728854I250000J0D01*
G01*
D12*
X170350000Y-93050000D02*
X170350000Y-53430000D01*
M02*
